<?xml version="1.0" encoding="UTF-8"?>
<svg id="Layer_1" data-name="Layer 1" xmlns="http://www.w3.org/2000/svg" viewBox="0 0 248 305">
  <defs>
    <style>
      .cls-1 {
        fill: #37ff7d;
      }

      .cls-1, .cls-2, .cls-3 {
        stroke-width: 0px;
      }

      .cls-2 {
        fill: #fff;
      }

      .cls-3 {
        fill: #241f20;
      }
    </style>
  </defs>
  <path class="cls-3" d="m93.42,218.72c-.79-1.88-1.16-3.73-1.16-5.78.04-36.52.21-73.04-.09-109.56-.08-9.3,1.42-17.8,5.23-26.36,9.5-21.36,18.29-43.04,27.37-64.59v-1.67c-.13,0-.26-.02-.4-.02-12.23,0-23.9,3.65-34.59,10.22h.08c-.6,2.91-2.06,5.48-3.18,8.18-7.34,17.56-14.72,35.1-22.09,52.64-.5,1.2-.75,2.4-.75,3.72.02,44.77.02,89.55,0,134.32,0,1.4.25,2.68.79,3.96,8.22,19.52,16.43,39.04,24.62,58.57.27.64.68,1.27.68,1.99,10.65,6.52,22.27,10.14,34.44,10.14h.06v-1.94s0-.02-.02-.03c-10.33-24.6-20.64-49.2-30.99-73.78h0Z"/>
  <path class="cls-2" d="m160.19,282.07c8.13-19.42,16.27-38.83,24.45-58.23.55-1.29.77-2.57.77-3.96-.02-44.72-.02-89.43,0-134.15,0-1.47-.25-2.82-.83-4.19-8.27-19.62-16.5-39.26-24.73-58.9-.18-.43-.28-.91-.4-1.37-10.71-6.69-22.41-10.43-34.68-10.51v1.68c2.67,7.46,5.99,14.65,9.04,21.95,7.46,17.88,14.97,35.74,22.48,53.59.51,1.21.75,2.4.75,3.72-.02,40.7-.02,81.41,0,122.11,0,1.4-.32,2.66-.85,3.93-10.17,24.2-20.33,48.42-30.47,72.64-.24.57-.42,1.17-.62,1.76v2.32c12.16-.15,23.76-3.87,34.37-10.51,0-.71.46-1.28.71-1.88h.01Z"/>
  <path class="cls-1" d="m156.2,217.6c.54-1.28.86-2.53.85-3.93-.02-40.7-.02-81.41,0-122.11,0-1.31-.24-2.51-.75-3.72-7.52-17.86-15.03-35.71-22.48-53.59-3.05-7.3-6.37-14.49-9.04-21.95v-.02.02c-9.08,21.55-17.88,43.23-27.37,64.59-3.8,8.56-5.31,17.05-5.23,26.36.3,36.52.13,73.04.09,109.56,0,2.05.37,3.9,1.16,5.78,10.35,24.58,20.66,49.19,30.99,73.78,0,.01.02.02.02.03.09.19.23.36.35.54.11-.32.23-.63.33-.94.19-.59.38-1.19.62-1.76,10.15-24.22,20.3-48.43,30.47-72.64h-.01Z"/>
  <path class="cls-1" d="m89.24,282.31c-8.19-19.53-16.4-39.05-24.62-58.57-.54-1.27-.79-2.56-.79-3.96.02-44.77.02-89.55,0-134.32,0-1.31.25-2.52.75-3.72,7.38-17.54,14.76-35.08,22.09-52.64,1.13-2.7,2.59-5.27,3.18-8.18h-.08c-17.79,10.93-32.84,30.03-43.19,54.28-.76,1.81-1.51,3.61-2.21,5.43-.43,1.13-.86,2.25-1.28,3.4-.88,2.44-1.71,4.89-2.49,7.34-.43,1.38-.84,2.78-1.24,4.19-.39,1.35-.76,2.71-1.12,4.07-.71,2.71-1.37,5.46-1.98,8.24-.23,1.05-.46,2.09-.67,3.14-.34,1.72-.66,3.45-.97,5.2-.29,1.68-.55,3.36-.79,5.05-.25,1.67-.47,3.35-.68,5.04-.31,2.56-.58,5.12-.8,7.7-.05.53-.09,1.07-.13,1.6-.52,6.97-.72,14-.6,21.09.11,6.58.54,13.12,1.23,19.62.14,1.27.28,2.53.44,3.79.18,1.42.4,2.83.6,4.24.48,3.23,1.02,6.42,1.65,9.56.09.44.17.88.26,1.32,8.37,40.65,28.4,73.37,54.08,89.08,0-.73-.41-1.35-.68-1.99h.04Z"/>
  <path class="cls-1" d="m159.46,21.27c.12.46.22.93.4,1.37,8.23,19.64,16.46,39.28,24.73,58.9.58,1.37.83,2.71.83,4.19-.02,44.72-.02,89.43,0,134.15,0,1.39-.22,2.66-.77,3.96-8.18,19.4-16.32,38.81-24.45,58.23-.25.6-.7,1.18-.71,1.88,33.84-21.17,57.69-71.98,57.69-131.33s-23.86-110.18-57.71-131.34h0Z"/>
</svg>